<svg width="1750" height="626" viewBox="0 0 1750 626" fill="none" xmlns="http://www.w3.org/2000/svg">
<path d="M1127.1 292.2C1127.1 296.293 1126.53 300.366 1125.4 304.3H1040.8C1039.07 298.248 1038.65 291.894 1039.59 285.668C1040.52 279.442 1042.78 273.489 1046.21 268.211C1049.64 262.932 1054.16 258.451 1059.47 255.07C1064.78 251.69 1070.76 249.488 1076.99 248.614C1083.23 247.74 1089.57 248.213 1095.61 250.003C1101.65 251.793 1107.23 254.857 1111.98 258.989C1116.73 263.121 1120.53 268.223 1123.14 273.953C1125.75 279.682 1127.1 285.905 1127.1 292.2Z" fill="#DBF3FA"/>
<path d="M1064.7 304.3H997.9C999.381 296.526 1003.53 289.511 1009.62 284.466C1015.72 279.42 1023.39 276.659 1031.3 276.659C1039.21 276.659 1046.88 279.42 1052.98 284.466C1059.07 289.511 1063.22 296.526 1064.7 304.3Z" fill="#DBF3FA"/>
<path d="M773 180.3C773.023 182.634 773.36 184.955 774 187.2H821.9C822.507 184.95 822.809 182.63 822.8 180.3C822.8 173.696 820.177 167.363 815.507 162.693C810.837 158.023 804.504 155.4 797.9 155.4C791.296 155.4 784.963 158.023 780.293 162.693C775.623 167.363 773 173.696 773 180.3Z" fill="#DBF3FA"/>
<path d="M805.3 187.2H846.2C845.313 182.424 842.782 178.11 839.047 175.005C835.312 171.9 830.608 170.2 825.75 170.2C820.893 170.2 816.189 171.9 812.454 175.005C808.718 178.11 806.188 182.424 805.3 187.2V187.2Z" fill="#DBF3FA"/>
<path d="M1005.1 202.9H1029.1C1028.59 200.093 1027.1 197.555 1024.91 195.728C1022.72 193.901 1019.95 192.9 1017.1 192.9C1014.25 192.9 1011.48 193.901 1009.29 195.728C1007.1 197.555 1005.61 200.093 1005.1 202.9V202.9Z" fill="#DBF3FA"/>
<path d="M1148.2 283.8C1148.2 287.408 1147.22 290.949 1145.38 294.047C1143.53 297.146 1140.88 299.686 1137.7 301.4L1132.3 304.3H1106.7C1104.36 302.433 1102.46 300.06 1101.17 297.358C1099.87 294.657 1099.19 291.697 1099.2 288.7C1099.2 285.104 1100.17 281.575 1102 278.479C1103.82 275.384 1106.45 272.835 1109.6 271.1L1118.7 266.2C1123.37 263.708 1128.84 263.16 1133.92 264.677C1138.99 266.194 1143.26 269.652 1145.8 274.3C1147.36 277.223 1148.19 280.485 1148.2 283.8Z" fill="#DBF3FA"/>
<path d="M1136.8 288.2C1132.06 288.195 1127.46 289.778 1123.72 292.697C1119.99 295.615 1117.34 299.7 1116.2 304.3H1157.4C1156.26 299.7 1153.61 295.615 1149.88 292.697C1146.14 289.778 1141.54 288.195 1136.8 288.2V288.2Z" fill="#DBF3FA"/>
<path d="M1009.4 198.8C1009.4 194.265 1007.6 189.916 1004.39 186.709C1001.18 183.502 996.835 181.7 992.3 181.7C987.765 181.7 983.416 183.502 980.209 186.709C977.002 189.916 975.2 194.265 975.2 198.8C975.212 200.181 975.38 201.557 975.7 202.9H1008.9C1009.22 201.557 1009.39 200.181 1009.4 198.8V198.8Z" fill="#DBF3FA"/>
<path d="M570.7 219.8C570.739 212.334 569.187 204.945 566.149 198.124C563.111 191.304 558.656 185.209 553.079 180.243C547.503 175.278 540.933 171.557 533.807 169.328C526.681 167.098 519.162 166.412 511.75 167.313C504.339 168.214 497.204 170.684 490.82 174.556C484.436 178.429 478.95 183.616 474.726 189.773C470.502 195.93 467.638 202.916 466.323 210.265C465.008 217.615 465.273 225.161 467.1 232.4H569.2C570.209 228.276 570.713 224.045 570.7 219.8V219.8Z" fill="#DBF3FA"/>
<path d="M810.1 189.3C830.037 189.3 846.2 188.36 846.2 187.2C846.2 186.04 830.037 185.1 810.1 185.1C790.162 185.1 774 186.04 774 187.2C774 188.36 790.162 189.3 810.1 189.3Z" fill="#CBECFA"/>
<path d="M1077.6 308.8C1121.67 308.8 1157.4 306.785 1157.4 304.3C1157.4 301.815 1121.67 299.8 1077.6 299.8C1033.53 299.8 997.8 301.815 997.8 304.3C997.8 306.785 1033.53 308.8 1077.6 308.8Z" fill="#CBECFA"/>
<path d="M1002.4 203.8C1017.15 203.8 1029.1 203.397 1029.1 202.9C1029.1 202.403 1017.15 202 1002.4 202C987.654 202 975.7 202.403 975.7 202.9C975.7 203.397 987.654 203.8 1002.4 203.8Z" fill="#DBF3FA"/>
<path d="M421.9 228.1C444.433 228.1 462.7 209.833 462.7 187.3C462.7 164.767 444.433 146.5 421.9 146.5C399.367 146.5 381.1 164.767 381.1 187.3C381.1 209.833 399.367 228.1 421.9 228.1Z" fill="#DBF3FA"/>
<path d="M481.2 218.8C513.454 218.8 539.6 192.653 539.6 160.4C539.6 128.147 513.454 102 481.2 102C448.947 102 422.8 128.147 422.8 160.4C422.8 192.653 448.947 218.8 481.2 218.8Z" fill="#DBF3FA"/>
<path d="M441.5 232.4H320.6C328.3 210.3 352.4 194.2 381.1 194.2C409.8 194.2 433.8 210.3 441.5 232.4Z" fill="#DBF3FA"/>
<path d="M499.4 206.7H413.4V232.45H499.4V206.7Z" fill="#DBF3FA"/>
<path d="M444.9 244.3C513.549 244.3 569.2 238.972 569.2 232.4C569.2 225.828 513.549 220.5 444.9 220.5C376.251 220.5 320.6 225.828 320.6 232.4C320.6 238.972 376.251 244.3 444.9 244.3Z" fill="#CBECFA"/>
<path d="M901.5 122.4C901.4 122.4 901.4 122.3 901.4 122.2H901.3V122H900.4C900.373 122 900.348 121.99 900.329 121.971C900.31 121.952 900.3 121.927 900.3 121.9H899.7L899.2 121.7H897C896.9 120.6 896.2 120.4 895.7 120.4C895.2 120.4 894.9 118.6 894.4 119.1C893.969 119.824 893.76 120.659 893.8 121.5L891.9 121.3H891.7V112L887.3 107.6H882.6L878.3 112V115.1C877.783 115.073 877.267 115.176 876.8 115.4C875.9 113.9 872.1 113.2 872.6 117.7C871.9 117.1 870 116.9 870.4 121.2L869.4 121.5C868.863 121.472 868.326 121.576 867.838 121.802C867.35 122.029 866.925 122.372 866.6 122.8L866.3 123.4C866 124.3 866.6 134.3 867 138.6C867.4 142.9 873.1 146.5 883.1 150.5C886.2 151.7 889 152.6 891.7 148.6C894.4 144.6 894.9 143 895 142.7C895.1 142.4 899.5 140.7 900.2 135.8C900.9 130.9 901.4 125.5 901.5 123.7C901.549 123.268 901.549 122.832 901.5 122.4V122.4Z" fill="#EBF0F7"/>
<path d="M1139.1 73.8999H1133.3C1131.53 73.8999 1130.1 75.3326 1130.1 77.0999V77.1499C1130.1 78.9172 1131.53 80.3499 1133.3 80.3499H1139.1C1140.87 80.3499 1142.3 78.9172 1142.3 77.1499V77.0999C1142.3 75.3326 1140.87 73.8999 1139.1 73.8999Z" fill="#9ED9C5"/>
<path d="M1186.1 68.5C1187.72 68.5 1189.27 69.1427 1190.41 70.2867C1191.56 71.4306 1192.2 72.9822 1192.2 74.6V81.6H1180V74.6C1180 72.9822 1180.64 71.4306 1181.79 70.2867C1182.93 69.1427 1184.48 68.5 1186.1 68.5Z" fill="#69BA91"/>
<path d="M1144.7 58.2002H1135V68.5402H1144.7V58.2002Z" fill="#D1DDEB"/>
<path d="M1196.6 79.8998C1173.5 78.6998 1142 79.2998 1131.6 79.7998C1121.2 80.2998 1122 80.4998 1120.8 81.7998C1119.6 83.0998 1119.8 86.5998 1119.7 90.8998C1119.6 95.1998 1121.3 106.4 1121.4 109.2C1121.5 112 1122.8 116.6 1125.2 121.4C1127.6 126.2 1131.9 128.6 1136.9 131.5C1141.9 134.4 1144 133.8 1150.3 131.3L1165.4 125.1C1166.2 124.8 1167.5 124.8 1174.6 124C1181.7 123.2 1187.4 123.1 1188.7 120.6C1190.7 116.103 1192.43 111.495 1193.9 106.8C1194.14 105.69 1194.59 104.639 1195.25 103.711C1195.9 102.783 1196.73 101.997 1197.7 101.4C1199.23 100.28 1200.7 99.078 1202.1 97.7998C1203.3 96.6998 1204.1 90.9998 1203.9 88.9998C1203.88 86.9242 1203.71 84.8527 1203.4 82.7998C1203.1 81.6998 1203 80.1998 1196.6 79.8998Z" fill="#B07081"/>
<path d="M1183.4 84.1001C1185.56 86.7968 1187.53 89.6367 1189.3 92.6001C1190.3 94.2001 1188.7 94.2001 1176.1 91.6001L1163.6 89.1001L1183.4 84.1001Z" fill="#B87989"/>
<path d="M1130.8 90.9999C1130.8 90.9999 1130.9 96.4999 1130.8 97.5999C1130.7 98.6999 1129.4 100.3 1128.8 102.4C1128.26 104.454 1128.06 106.581 1128.2 108.7C1128.4 110.7 1129.1 109.4 1129.5 107.1C1129.9 104.8 1132.7 102.3 1134.3 100.6C1135.9 98.8999 1136.9 97.4999 1136.9 95.7999C1137.05 93.8189 1137.32 91.8487 1137.7 89.8999L1130.8 90.9999Z" fill="#C98094"/>
<path d="M1148.7 85.6C1139.14 84.5509 1129.52 84.0168 1119.9 84C1119.91 83.1783 1120.23 82.3906 1120.8 81.8C1122 80.5 1122.3 80.2 1131.6 79.8C1140.9 79.4 1173.5 78.7 1196.6 79.9C1203 80.2 1203.1 81.7 1203.4 82.8C1203.54 83.1842 1203.61 83.5911 1203.6 84C1199.9 84.2 1186.9 85.8 1185.3 86C1183.7 86.2 1181.8 87.1 1179.3 87.8C1176.8 88.5 1171.6 90.5 1168.9 90.8C1163.16 91.4187 1157.38 91.6858 1151.6 91.6L1130.8 91C1130.8 91 1130.5 89.7 1130.8 89.2C1131.1 88.7 1132.5 87.7 1139.6 86.9C1146.7 86.1 1152.7 86.1 1148.7 85.6Z" fill="#53A0A3"/>
<path d="M1120.8 81.8002C1122 80.5002 1122.3 80.2002 1131.6 79.8002C1137.9 79.5002 1151.7 79.2002 1166.7 79.2002C1159.9 79.6002 1152.2 80.4002 1151.3 81.4002C1144.3 80.8002 1134.6 81.1002 1133.6 82.0002C1130.99 81.8567 1128.38 82.1957 1125.9 83.0002C1125.32 83.198 1124.83 83.5858 1124.5 84.1002H1119.9C1119.89 83.6763 1119.96 83.2547 1120.12 82.8599C1120.27 82.465 1120.51 82.1048 1120.8 81.8002V81.8002Z" fill="#69BA91"/>
<path d="M1149.9 85.8999H1150C1152.94 83.9661 1156.38 82.956 1159.9 82.9999C1157.4 83.6999 1156.3 86.9999 1156.3 86.9999C1154.34 86.8865 1152.37 86.8865 1150.4 86.9999C1147.7 87.1999 1142.8 88.1999 1141.1 88.1999C1139.4 88.1999 1136.8 89.2999 1136.8 89.9999V91.1999L1130.8 90.9999C1130.8 90.9999 1130.5 89.6999 1130.8 89.1999C1131.1 88.6999 1132.5 87.6999 1139.6 86.8999C1144.7 86.2999 1149.2 86.1999 1149.9 85.8999Z" fill="#69BA91"/>
<path d="M1162.9 102.8C1161 102.8 1144.5 127 1141 133.3C1143.7 133.9 1146 133 1150.3 131.3L1165.4 125.1C1166.2 124.8 1167.5 124.8 1174.6 124C1181.7 123.2 1187.4 123.1 1188.7 120.6C1188.7 120.6 1176.5 110.9 1173.1 108.6C1169.7 106.3 1165.1 102.8 1162.9 102.8Z" fill="#A36378"/>
<path d="M1185.4 66.1001H1135V81.5901H1185.4V66.1001Z" fill="#CAD6E3"/>
<path d="M1172 56.2002H1151.2V81.6302H1172V56.2002Z" fill="#CAD6E3"/>
<path d="M1172 81.6001H1185.4V60.4301H1172V81.6001Z" fill="#D1DDEB"/>
<path d="M1151.2 56.2H1172L1161.6 36L1151.2 56.2Z" fill="#A3C0FF"/>
<path d="M1167.1 60.5001H1185.4L1176.2 46.1001L1167.1 60.5001Z" fill="#A3C0FF"/>
<path d="M1167.1 60.5002V66.1002H1159.6V56.2002H1169.8L1167.1 60.5002Z" fill="#E1EDFC"/>
<path d="M1181.7 63.1001H1180.6V64.6701H1181.7V63.1001Z" fill="#C1CCD9"/>
<path d="M1165.7 79.1001C1165.7 78.2717 1165.03 77.6001 1164.2 77.6001C1163.37 77.6001 1162.7 78.2717 1162.7 79.1001V82.5201C1162.7 83.3485 1163.37 84.0201 1164.2 84.0201C1165.03 84.0201 1165.7 83.3485 1165.7 82.5201V79.1001Z" fill="#53A0A3"/>
<path d="M1159.9 73.8999H1147.8V83.0199H1159.9V73.8999Z" fill="#E1EDFC"/>
<path d="M1159.9 73.8999H1147.8V83.0199H1159.9V73.8999Z" fill="#B2C4D9"/>
<path d="M1159.9 73.9001L1156.2 70.6001H1147.8V73.9001H1159.9Z" fill="#8FB2FF"/>
<path d="M1156.1 62.8999H1147.8V70.5999H1156.1V62.8999Z" fill="#D1DDEB"/>
<path d="M1147.8 62.9L1152 60L1156.2 62.9H1147.8Z" fill="#8FB2FF"/>
<path d="M1167.1 36.8999H1163.9V46.7499H1167.1V36.8999Z" fill="#D1DDEB"/>
<path d="M1143.3 58.2002H1140.6V66.1602H1143.3V58.2002Z" fill="#E1EDFC"/>
<path d="M1377.8 103.1C1377.79 107.666 1377.15 112.208 1375.9 116.6H1281.9C1280.69 112.204 1280.08 107.661 1280.1 103.1C1280.67 90.5269 1286.06 78.657 1295.16 69.9606C1304.26 61.2642 1316.36 56.4111 1328.95 56.4111C1341.54 56.4111 1353.64 61.2642 1362.74 69.9606C1371.84 78.657 1377.23 90.5269 1377.8 103.1V103.1Z" fill="#DBF3FA"/>
<path d="M1268.4 106C1268.36 109.584 1267.86 113.147 1266.9 116.6H1192.5C1191.49 113.158 1190.99 109.587 1191 106C1191 95.7364 1195.08 85.8929 1202.34 78.6353C1209.59 71.3776 1219.44 67.3003 1229.7 67.3003C1239.96 67.3003 1249.81 71.3776 1257.07 78.6353C1264.32 85.8929 1268.4 95.7364 1268.4 106V106Z" fill="#DBF3FA"/>
<path d="M1191 99.2003C1185.87 99.1846 1180.89 100.891 1176.84 104.046C1172.8 107.201 1169.93 111.622 1168.7 116.6H1213.2C1211.99 111.63 1209.14 107.211 1205.11 104.055C1201.09 100.899 1196.12 99.1894 1191 99.2003V99.2003Z" fill="#DBF3FA"/>
<path d="M1321.9 71.2002C1321.91 74.0966 1321.58 76.9841 1320.9 79.8002L1314.6 109C1314.02 111.611 1313.19 114.157 1312.1 116.6H1238.9C1235.41 108.855 1234.54 100.187 1236.4 91.9002L1242.7 62.7002C1244.88 53.1179 1250.5 44.6693 1258.5 38.9583C1266.49 33.2473 1276.31 30.6716 1286.08 31.7203C1295.85 32.7689 1304.9 37.3688 1311.5 44.6467C1318.1 51.9246 1321.8 61.3738 1321.9 71.2002Z" fill="#DBF3FA"/>
<path d="M1272.3 129.2C1329.52 129.2 1375.9 123.559 1375.9 116.6C1375.9 109.641 1329.52 104 1272.3 104C1215.08 104 1168.7 109.641 1168.7 116.6C1168.7 123.559 1215.08 129.2 1272.3 129.2Z" fill="#CBECFA"/>
</svg>
