<svg width="40" height="41" viewBox="0 0 40 41" fill="none" xmlns="http://www.w3.org/2000/svg">
<g clip-path="url(#clip0)">
<circle cx="20" cy="20.5" r="20" fill="#202225"/>
<path d="M20 10.5C14.4764 10.5 10 14.9764 10 20.5C10 26.0236 14.4764 30.5 20 30.5C25.5236 30.5 30 26.0236 30 20.5C30 14.9764 25.5236 10.5 20 10.5ZM20 14.1C20.4422 14.1 20.8 14.4578 20.8 14.9V20.0376L24.5625 22.2126C24.9453 22.4329 25.0703 22.9173 24.85 23.3001C24.6297 23.683 24.1453 23.8079 23.7625 23.5876L19.6873 21.2376C19.656 21.2251 19.6279 21.2048 19.5998 21.1876C19.3607 21.0486 19.1998 20.7954 19.1998 20.5001V14.9001C19.1998 14.4579 19.5578 14.1 20 14.1Z" fill="#7289DA"/>
</g>
<defs>
<clipPath id="clip0">
<rect width="40" height="40" fill="white" transform="translate(0 0.5)"/>
</clipPath>
</defs>
</svg>
