<svg width="40" height="41" viewBox="0 0 40 41" fill="none" xmlns="http://www.w3.org/2000/svg">
<g clip-path="url(#clip0)">
<circle cx="20" cy="20.5" r="20" fill="#202225"/>
<path d="M21.9998 16.5C21.9998 15.9477 21.552 15.5 20.9998 15.5H17.7598L18.3655 12.0874C18.4199 11.7811 18.1843 11.5 17.8732 11.5H16.8888C16.6464 11.5 16.4389 11.6739 16.3965 11.9126L15.7598 15.5H12.1799C11.937 15.5 11.7292 15.6746 11.6873 15.9138L11.5123 16.9138C11.4588 17.2198 11.6943 17.5 12.0049 17.5H15.4098L14.3498 23.5H10.7699C10.527 23.5 10.3192 23.6746 10.2773 23.9138L10.1023 24.9138C10.0488 25.2198 10.2843 25.5 10.5949 25.5H13.9998L13.394 28.9126C13.3397 29.2189 13.5752 29.5 13.8863 29.5H14.8707C15.1131 29.5 15.3206 29.3261 15.363 29.0874L15.9998 25.5H21.9998L21.394 28.9126C21.3397 29.2189 21.5752 29.5 21.8863 29.5H22.8707C23.1131 29.5 23.3206 29.3261 23.363 29.0874L23.9998 25.5H27.5797C27.8226 25.5 28.0303 25.3254 28.0722 25.0862L28.2472 24.0862C28.3007 23.7802 28.0653 23.5 27.7547 23.5H24.3498L24.6756 21.6558C24.7821 21.0529 24.3183 20.5 23.706 20.5C23.2284 20.5 22.8196 20.8429 22.7365 21.3133L22.3502 23.5H16.3502L17.4102 17.5H20.9998C21.552 17.5 21.9998 17.0523 21.9998 16.5Z" fill="#7289DA"/>
<path d="M29.025 13.5V12.5C29.025 11.38 28.05 10.5 27 10.5C25.95 10.5 25 11.38 25 12.5V13.5C24.4477 13.5 24 13.9477 24 14.5V17.5C24 18.0523 24.4477 18.5 25 18.5H27H29C29.5523 18.5 30 18.0523 30 17.5V14.475C30 13.9365 29.5635 13.5 29.025 13.5ZM28 13.5H26V12.5C26 11.9286 26.4667 11.5 27 11.5C27.5333 11.5 28 11.9286 28 12.5V13.5Z" fill="#7289DA"/>
</g>
<defs>
<clipPath id="clip0">
<rect width="40" height="40" fill="white" transform="translate(0 0.5)"/>
</clipPath>
</defs>
</svg>
