<svg width="40" height="41" viewBox="0 0 40 41" fill="none" xmlns="http://www.w3.org/2000/svg">
<g clip-path="url(#clip0)">
<circle cx="20" cy="20.062" r="20" fill="#202225"/>
<path d="M13.998 30.062V26.062H11.998C10.895 26.062 9.99805 25.165 9.99805 24.062V12.062C9.99805 10.958 10.895 10.062 11.998 10.062H27.998C29.101 10.062 29.998 10.958 29.998 12.062V24.062C29.998 25.165 29.101 26.062 27.998 26.062H19.331L13.998 30.062ZM11.998 12.062V24.062H15.998V26.062L18.665 24.062H27.998V12.062H11.998Z" fill="#7289DA"/>
<path d="M16.998 14.062H14.998V22.062H16.998V14.062Z" fill="#7289DA"/>
<path d="M20.998 18.062H18.998V22.062H20.998V18.062Z" fill="#7289DA"/>
<path d="M24.998 16.062H22.998V22.062H24.998V16.062Z" fill="#7289DA"/>
</g>
<defs>
<clipPath id="clip0">
<rect width="40" height="40" fill="white" transform="translate(0 0.0620117)"/>
</clipPath>
</defs>
</svg>
